<?xml version="1.0" encoding="UTF-8" standalone="no"?>
<svg width="180px" height="240px" viewBox="0 0 180 240" version="1.1" xmlns="http://www.w3.org/2000/svg" xmlns:xlink="http://www.w3.org/1999/xlink" xmlns:sketch="http://www.bohemiancoding.com/sketch/ns">
    <!-- Generator: Sketch 3.4.2 (15855) - http://www.bohemiancoding.com/sketch -->
    <title>Artboard 1</title>
    <desc>Created with Sketch.</desc>
    <defs></defs>
    <g id="Page-1" stroke="none" stroke-width="1" fill="none" fill-rule="evenodd" sketch:type="MSPage">
        <g id="Artboard-1" sketch:type="MSArtboardGroup" fill="#4895DC">
            <g id="Page-1" sketch:type="MSLayerGroup" transform="translate(-41.000000, 2.000000)">
                <path d="M192.877609,45.3077647 L124.089591,5.05929412 C119.295276,2.24564706 112.869043,0.683294118 105.982586,0.638588235 L105.31667,0.638588235 C98.4522855,0.683294118 92.0265227,2.24564706 87.2317381,5.05929412 L18.4437192,45.3077647 C15.1366796,47.2484706 12.0733711,50.1454118 9.38199882,53.5152941 C17.7280236,49.3392941 27.2950513,46.1308235 37.827141,44.1232941 C63.8584543,39.1684706 90.5115398,40.2696471 113.490815,47.2094118 C136.869735,54.2437647 156.1752,67.1388235 169.504326,84.9722353 C185.175429,105.974588 187.278372,127.439059 177.167998,146.083765 C166.574388,165.601882 142.662924,181.772706 107.841798,190.441412 C77.7760094,197.904 46.2844649,197.248 18.1774466,190.424941 C18.2662041,190.474824 18.3549617,190.558588 18.4437192,190.614118 L87.2317381,230.862118 C92.0265227,233.675765 98.4522855,235.238588 105.344378,235.294118 L105.999493,235.294118 C112.874678,235.238588 119.295276,233.675765 124.089591,230.862118 L192.877609,190.614118 C203.049503,184.664 211.323207,170.117176 211.323207,158.217412 L211.323207,77.704 C211.323207,65.7934118 203.049503,51.2574118 192.877609,45.3077647" id="Fill-1" sketch:type="MSShapeGroup"></path>
                <path d="M76.9729652,146.844706 C57.4120283,151.354353 36.6249227,150.492706 18.8118985,144.403765 C11.7310206,141.990118 5.45506549,138.842824 0,135.100706 L0,157.954824 C2.38048614,158.972706 4.78351386,159.951059 7.30253687,160.835294 C32.0301947,169.426824 60.6861947,170.683294 87.2833959,164.371765 C110.262671,158.922353 127.426216,147.689882 135.633704,133.071059 C142.958782,120.064471 142.092809,105.662118 133.652861,93.5289412 C127.853567,85.2098824 114.990771,74.3943529 96.0455009,68.5167059 C82.4834454,64.3129412 68.2108602,63.5454118 54.5985558,66.2592941 C35.4593345,70.0682353 27.557567,77.7143529 24.2834006,83.5251765 C20.4489817,90.3148235 21.4755634,97.0489412 23.5451634,100.763294 C30.775849,113.730824 46.5634171,116.900235 55.5255788,114.959529 C64.4262206,113.035765 69.4041558,107.841882 65.8468106,101.958588 C63.0943882,97.4381176 56.4854749,94.3463529 49.6098195,94.3237647 C48.4169935,94.3237647 47.2514053,93.8235294 46.8019823,93.0395294 C46.6131965,92.7449412 46.5413451,92.4447059 46.6023953,92.1609412 C47.2791127,88.6075294 50.2423929,83.3863529 63.5161038,80.6724706 C71.3737274,79.0432941 79.2924012,79.4658824 87.0894442,81.9294118 C98.6316791,85.5491765 107.510249,92.7670588 111.228203,98.3501176 C116.794098,106.735529 116.855148,116.705882 111.19486,125.752941 C105.018933,135.656471 92.8549263,143.196706 76.9729652,146.844706" id="Fill-2" sketch:type="MSShapeGroup"></path>
            </g>
        </g>
    </g>
</svg>