<?xml version="1.0" encoding="UTF-8" standalone="no"?>
<svg width="180px" height="240px" viewBox="0 0 180 240" version="1.1" xmlns="http://www.w3.org/2000/svg" xmlns:xlink="http://www.w3.org/1999/xlink" xmlns:sketch="http://www.bohemiancoding.com/sketch/ns">
    <!-- Generator: Sketch 3.4.2 (15855) - http://www.bohemiancoding.com/sketch -->
    <title>Artboard 1 Copy</title>
    <desc>Created with Sketch.</desc>
    <defs></defs>
    <g id="Page-1" stroke="none" stroke-width="1" fill="none" fill-rule="evenodd" sketch:type="MSPage">
        <g id="Artboard-1-Copy" sketch:type="MSArtboardGroup" fill="#DFE3E4">
            <path d="M156.358425,57.6156539 C156.358425,57.6156539 184.341143,36.8369966 159.625556,12.0990823 C152.190786,4.64942764 145.083473,2.04465327 138.787361,2 L138.556652,2 C124.230393,2.05209549 114.153638,15.3662136 114.153638,15.3662136 L111.839109,17.6807417 L154.043896,59.930182 L156.358425,57.6156539 Z M-52.5072688,57.6007694 L-50.2001829,59.9152975 L-8.00283813,17.6584151 L-10.3173662,15.3364448 C-10.3173662,15.3364448 -19.4564031,3.10144745 -32.8002901,2 L-36.3502255,2 C-42.2816688,2.43164832 -48.8605847,5.14061367 -55.7744001,12.0618713 C-63.268708,19.5710637 -65.8660402,26.7453565 -65.8660402,33.0861215 C-65.8660402,47.4793605 -52.5072688,57.6007694 -52.5072688,57.6007694 L-52.5072688,57.6007694 Z M124.721579,209.563306 L141.444231,192.818328 L149.496705,217.623222 L124.721579,209.563306 Z M75.3424994,138.73577 L84.8908581,129.172527 L133.406641,177.75529 L123.858283,187.311091 L75.3424994,138.73577 Z M109.680868,201.510832 L61.1650847,152.928069 L70.7208855,143.357384 L119.244111,191.940147 L109.680868,201.510832 Z M42.3734982,134.121598 L51.9367412,124.550913 L61.492542,134.114156 L51.929299,143.684841 L42.3734982,134.121598 Z M-5.84459651,201.533159 L-15.3929551,191.969916 L33.1451547,143.364826 L42.6935133,152.935511 L-5.84459651,201.533159 Z M-29.5703699,177.770174 L18.9677399,129.172527 L28.5309829,138.743212 L-20.0071269,187.348302 L-29.5703699,177.770174 Z M-45.6604333,217.638107 L-37.6079594,192.833212 L-20.8853079,209.578191 L-45.6604333,217.638107 Z M37.7593264,110.351172 L47.3225695,119.929299 L37.7593264,129.499984 L28.2035256,119.921857 L37.7593264,110.351172 Z M51.929299,96.1663145 L61.492542,105.737 L51.9367412,115.300243 L42.3809404,105.729558 L51.929299,96.1663145 Z M75.6550724,119.929299 L66.1067138,129.492542 L56.5509129,119.921857 L66.1067138,110.358614 L75.6550724,119.929299 Z M149.533916,175.410993 L149.519031,175.381224 L149.519031,175.388666 L94.1266438,119.921857 L140.186497,73.802466 L130.958153,64.5592381 L84.8983003,110.678629 L75.3424994,101.107944 L121.402352,54.9885529 L116.780739,50.3669389 L70.7283277,96.4937719 L61.1650847,86.9156444 L107.224938,40.7962537 L97.989152,31.5455836 L51.929299,77.6649743 L5.8471193,31.5232569 L-3.38122418,40.773927 L42.6935133,86.9156444 L33.1377125,96.4788875 L-12.937025,50.3446123 L-17.558639,54.9662262 L28.5235407,101.107944 L18.9602977,110.678629 L-27.1144398,64.5369115 L-36.3502255,73.7875816 L9.73195421,119.921857 L-45.6678755,175.396109 L-45.6902021,175.396109 L-45.6902021,175.418435 L-66,238 L-65.9851156,238 L-3.50029958,217.675318 L-3.47797294,217.667876 L-3.47797294,217.660433 L51.929299,162.178739 L107.306802,217.638107 L107.306802,217.645549 L107.329129,217.652991 L107.336571,217.652991 L169.836271,237.985116 L149.533916,175.410993 Z" id="Page-1" sketch:type="MSShapeGroup"></path>
        </g>
    </g>
</svg>